<svg width="800" height="800" version="1.1" viewBox="0 0 211.67 211.67" xmlns="http://www.w3.org/2000/svg">
 <path transform="scale(.26458)" d="m647.86 24.285-247.86 81.43v-5.7148l-31.428-10.715-59.287 27.143-22.857 17.857-8.5703 11.43-60.715 20-5-2.1426-22.857 7.1426-3.5703 5-42.857 14.285-2.1426 5.7148-2.8574 2.1426-5.7148-6.4297-18.57 2.8574-62.145 38.572 49.287-2.1426 31.428-22.143 13.572-1.4297 37.143-8.5703 2.1426-7.8574 7.1426 2.8574 20-5 5-6.4297 15.715-5-0.71484 5.7148-27.143 29.285-26.428 45 0.71289 20-4.3106 4.8496-2.832 11.58-0.35742 3.9277 5.3574-6.4277 3.9297-11.787 2.5 10.357 0.35546 5.7148-4.2852 6.0703 15.357 1.4297 0.35742-7.5 7.5-8.9297 30.357-0.71289 2.1426-11.072 13.928-8.5703 13.572 6.0703-1.0723 6.7852 3.5723 10-5.3574 12.857-4.2852-7.8574 0.71289-15.713-19.285 9.2852-3.5703 13.928-20 5.7148-7.5-6.4277-6.4297-0.71484-1.0703 15.715-21.43 1.0703-7.8867-3.2852 3.6016 8.6426 2.1426 10.715 27.857 16.428 20-1.4277 35 50-7.8574 23.57 1.4277 31.43 9.2871 16.428 52.857 17.857 5 25.715-2.1445 18.57 7.8574 25.715-2e-3 0.0176 4.5215-5.1113 12.627-4.5469-0.50586 3.0312-6.0606 2.0195v5.0508l7.0723-3.0293h23.738l2.5254 4.041 16.162-1.0117v3.5371l-19.697-0.50585-1.0117-4.041-21.213-0.50391-1.5156 5.0508h-6.0606l-1.5156 3.5352-7.0703 1.5156-1.5156 7.5762-2.4961 1.5352-0.125 1.125-25 30.715s-18.572 47.858-17.857 53.572c0.71429 5.7143 0 28.57 0 28.57l-26.451 57.018 7.7852 16.867-6.0606 8.082 59.094-41.922 19.697-18.688-13.637-1.0098-11.617-8.5879 32.83 0.50586 37.881-41.922-3.5352-0.50391-17.172 11.617-19.699 3.5352 35.355-19.699 7.0723-0.5039 11.615-10.102 10.102-14.648 4.041-15.656-1.0098-2.0215-11.111 13.133-15.152 4.041 19.193-19.699 17.678-20.203 8.5859-5.5547 22.223-1.5156-17.172 9.0918-9.5976 6.5664-8.0801 20.203-5.5566 14.646-6.0606 18.688-49.498 49.498-37.375 33.84-43.438 32.83-21.705 13.691 0.77539 12.67 45.895 0.17382 65.949-66.436 12.123-3.0312 45.961-55.053 2.0215 4.5449-35.355 52.023-14.143 9.5957-61.848 58.412 44.564 0.16993 43.404-78.973-11.43 40.715 46.43-80h7.8574l-46.43 81.428-12.143 10.715-2.6973 26.211 244.84 0.93164 3.5723-25-1.4297-13.572 4.2871-9.2852-1.4296-47.143-2.8574-15.715 1.4297-1.4277 9.2852-4.2852-0.71485-8.5723 7.1445-2.1426 0.71289-12.857 3.5723-6.4277-1.4297-15.715-0.93945-0.71875-6.916 2.1465 4.2852 13.215-2.1426 5.7148-16.787-28.93 9.6445 5.7148 8.2226-0.68555-7.5098-5.7422-12.143-1.4297v-2.8574l-0.71485-71.428 20-7.1426 0.71485-23.572 13.572-16.428-15-49.287-35.715-33.57-19.285 0.71485-0.28711-0.14258-1.1426 0.49804-18.213 8.9297-6.7871 5-10.713 17.143-4.6445 16.785-4.6426 24.643-2.1426 30c-1.4286-1.0714-7.5-19.641-7.5-22.855 0-3.2143 1.7852-26.43 1.7852-26.43l7.1445-25.715 16.428-20.355 21.162-11.51-17.59-28.848-7.8574-17.143-21.43-20-17.143-2.1445v-2.1426l-7.1426-3.5703 5.7148-7.1426 1.832-2.75-3.2617-2.9648-12.857-12.857 6.4297-10.715-12.857-6.4277-19.285-24.285-2.8574-21.43-5-11.428 9.2852 11.428 5.7148 15.715 4.2852 9.2852 16.43 17.143 1.4277-7.8574-10.715-8.5703-9.2852-27.143 18.572 24.285 10 15-0.71485 11.428 6.6426 6.168 4.0723-14.023-17.145-46.43-22.855-35.715-20.715-11.428-27.857-1.4277-37.143 9.2852-25.715 29.285-4.2852 32.857 5 17.857 6.4277 12.857 0.71484 10 22.857 30 22.857 21.428-0.71484 7.8574-3.5723 4.2852-0.71289 27.143-20-2.1426 2.1426-2.1426v-15.715l-4.2852-3.5703-7.1445 6.4277-5 0.71484 0.71485-9.2852-8.5703-8.5723-0.71485-17.857-5.7148-7.1426-6.3945-1.8262-19.316 4.6504-16.668 21.213-15.152 15.658-1.0098 26.264-11.111 20.203-4.5469 31.82-3.0293-37.881 9.5957-18.184 1.5156-22.729 5.0508-17.172 13.133-21.213 10.605-1.0098 2.5254-6.5664-15.346-8.7266-4.8516 1.2129-5.7148 12.143-27.143-33.572 10.715-12.143-0.71484-16.428-12.143-15-21.428 0.71485-2.8574-4.2871 58.57-105.71 13.572-10 5 2.1426 27.857 4.2852 8.5703-6.4277 21.43 0.71289 13.57-2.8574 4.2871-3.5703-5-7.1426 2.8574-12.857 250-79.285 2.1426-10.715zm-267.5 241.43 3.2148 7.8574v12.855l2.5 12.857v11.787l6.4277 16.785-10-19.285 1.4277-12.145s-3.9277-8.5714-3.9277-10c0-1.4286 0.35742-20.713 0.35742-20.713zm98.215 76.07 26.785 57.857 41.428 15.357-4.2852 4.2852-42.857-15.357-2.5 6.0723-20.357-0.35742-14.643-8.2148 8.9297-10-9.2871-36.07 15.357-4.2852zm46.428 209.64 7.8574 15.715 17.857-3.5703 8.5703 43.57-1.4277 13.572 0.18989 4.0984 0.56792 5.0168 12.373-4.7988 1.0098 2.5254-9.8477 4.7988-8.8398 10.354 0.75781-12.121s-11.364-7.0719-11.869-8.082c-0.23757-0.47514 1.1524-5.6568 2.6836-10.998l-9.168-6.5078-7.4082-1.916-9.1348 1.0352 2.8242 6.1387-4.041 3.1582-4.293-2.7793s3.5215-5.1722 5.1191-6.4746l-8.959 1.0156-17.697 0.37696 13.457 25.791-12.627 0.50391-9.791-18.959-3.8476 7.3438-0.27539 0.17382-1.9961 22.555-9.5976 14.395 5.0508-14.648 2.1719-19.549-8.9902 5.6602-4.0391 10.102-13.133 16.162-14.646 1.0098-5.5566-7.0703 15.658 0.5039 9.0898-6.5644 9.5977-14.648 10.102-8.5859-0.50586-7.5762 5.5586-9.6367-8.5879-16.627 12.121-1.0098 8.877 17.014c5.3162-0.0686 16.801-0.24153 31.688-0.46485l-27.617-7.1426-7.1426-15 14.285-5.7129zm-85.584 21.834 0.50586 4.041-26.77 5.0508-10.607 8.0801-21.213 26.264-22.223 20.709-42.426 32.83-1.0117-4.041 54.549-47.982 25.76-30.305-0.50586-7.0703 8.5859 1.0098 4.041-3.5352zm87.906 35.666 3.75 3.0371 0.53515 3.2129 3.75 1.25-2.1426 10.895-2.6797-9.2871-3.5703-2.1426zm-12.322 4.6445 3.2148 3.2129-3.2148 3.3926-1.4277 9.2871-2.1445-3.75v-8.2148zm-33.662 12.217 4.5449 4.041-1.5156 20.709-4.0391 41.92-6.0605 16.162-12.123 11.113-17.172 3.0293-8.082 1.0098 7.0723 5.0508 9.0898 0.50586 5.0508 5.0508-5.0508 1.5156c-6.0609 0-17.172-3.0312-17.172-3.0312l-7.5762-7.5762 8.5859-22.223 3.5352 12.627 5.5566 3.0293 15.152-5.5547 10.607-10.607 4.0391-19.697zm30.809 8.8398 2.2734 2.7773 3.5352-1.5156 3.0312 5.3027v31.568l-1.7676 0.75781-1.5156-5.8086v-25.506h-2.5254l-3.5352 11.363-5.0508 11.869 1.0098 16.668v2.7773l-2.7773 0.50586-1.2637-24.244 7.5762-19.697zm18.689 1.2617h3.7871l0.25195 13.133 2.5254 1.2617s1.0106 23.992 1.5156 25.002c0.50509 1.0101 2.2734 0.25195 2.2734 0.25195l9.0918-9.5957 3.2832 3.7871-12.123 10.355-1.0098 14.646-6.0606-18.436-0.50586-23.738-2.7773-0.25195zm28.092 2.3242 22.145 22.5 1.0703 16.428-4.6426 11.072-5.7148 7.1426 1.0723-14.285-9.2852-7.1445c2.1428 0 10.355-1.4277 10.355-1.4277l2.1445-6.7852-5.3574-8.9297-11.43-10.357zm8.5254 46.668 0.25196 13.385-2.5254 6.0605-15.863 10.42-1.6387 20.787-3.75 5.1797-0.33203-24.297-10.992 2.3047s-9.5961 0.2539-11.111 0.2539c-1.5152 0-5.0508-4.041-5.0508-4.041l9.3438 1.5156 17.172-2.5254 4.293-2.0215 13.637-7.3223 3.5352-4.293-0.50391-12.627zm1.2969 20.295 10.535 14.287 6.7871 23.213-0.35743 14.107 6.25 7.5-1.7871 17.143-3.3926-18.75-4.8203-2.6777s-5.5e-4 -18.035-0.71484-19.285c-0.71429-1.25-4.4642-17.144-5-18.93-0.53571-1.7857-7.5-16.607-7.5-16.607zm-98.523 17.586v4.041l-7.5762 13.637-17.174 11.111-27.779 0.50586 3.5371-25.76 6.0605 12.627 16.162 5.5566 13.637-5.5566z" fill="#1a7876"/>
</svg>
